<mxfile host="app.diagrams.net" agent="Mozilla/5.0 (Windows NT 10.0; Win64; x64) AppleWebKit/537.36 (KHTML, like Gecko) Chrome/129.0.0.0 Safari/537.36 Edg/129.0.0.0" version="24.7.16">
  <diagram name="Page-1" id="9IYEK_wxPiSf8hYUbTBJ">
    <mxGraphModel dx="2377" dy="1518" grid="1" gridSize="10" guides="1" tooltips="1" connect="1" arrows="1" fold="1" page="1" pageScale="1" pageWidth="1654" pageHeight="1169" background="#E6E6E6" math="0" shadow="0">
      <root>
        <mxCell id="0" />
        <mxCell id="1" parent="0" />
        <mxCell id="SHSCwAb2SmVs6MCCzv4--3" value="" style="edgeStyle=orthogonalEdgeStyle;rounded=0;orthogonalLoop=1;jettySize=auto;html=1;" parent="1" source="SHSCwAb2SmVs6MCCzv4--1" target="SHSCwAb2SmVs6MCCzv4--2" edge="1">
          <mxGeometry relative="1" as="geometry" />
        </mxCell>
        <mxCell id="SHSCwAb2SmVs6MCCzv4--1" value="Quote/Estimate" style="whiteSpace=wrap;html=1;aspect=fixed;fillColor=#d5e8d4;strokeColor=#82b366;" parent="1" vertex="1">
          <mxGeometry x="10" y="160" width="110" height="110" as="geometry" />
        </mxCell>
        <mxCell id="PAcAt_rOkVFhLOpjQl2_-14" value="" style="edgeStyle=orthogonalEdgeStyle;rounded=0;orthogonalLoop=1;jettySize=auto;html=1;" parent="1" source="SHSCwAb2SmVs6MCCzv4--2" target="SHSCwAb2SmVs6MCCzv4--6" edge="1">
          <mxGeometry relative="1" as="geometry" />
        </mxCell>
        <mxCell id="SHSCwAb2SmVs6MCCzv4--2" value="Identify &lt;br/&gt;Operation steps / &lt;br/&gt;Process flow" style="whiteSpace=wrap;html=1;aspect=fixed;fillColor=#f5f5f5;strokeColor=#666666;fontColor=#333333;" parent="1" vertex="1">
          <mxGeometry x="443.75" y="160" width="110" height="110" as="geometry" />
        </mxCell>
        <mxCell id="SHSCwAb2SmVs6MCCzv4--9" value="" style="edgeStyle=orthogonalEdgeStyle;rounded=0;orthogonalLoop=1;jettySize=auto;html=1;" parent="1" source="SHSCwAb2SmVs6MCCzv4--6" target="SHSCwAb2SmVs6MCCzv4--8" edge="1">
          <mxGeometry relative="1" as="geometry" />
        </mxCell>
        <mxCell id="SHSCwAb2SmVs6MCCzv4--6" value="Understand Any additional Items required for measurement with Cost and &lt;br/&gt;Lead times" style="whiteSpace=wrap;html=1;aspect=fixed;fillColor=#f5f5f5;strokeColor=#666666;fontColor=#333333;" parent="1" vertex="1">
          <mxGeometry x="670" y="160" width="110" height="110" as="geometry" />
        </mxCell>
        <mxCell id="SHSCwAb2SmVs6MCCzv4--11" value="" style="edgeStyle=orthogonalEdgeStyle;rounded=0;orthogonalLoop=1;jettySize=auto;html=1;" parent="1" source="SHSCwAb2SmVs6MCCzv4--8" target="SHSCwAb2SmVs6MCCzv4--10" edge="1">
          <mxGeometry relative="1" as="geometry" />
        </mxCell>
        <mxCell id="SHSCwAb2SmVs6MCCzv4--8" value="Understand&lt;br&gt;Resource costs&lt;br&gt;and availability" style="whiteSpace=wrap;html=1;aspect=fixed;fillColor=#f5f5f5;strokeColor=#666666;fontColor=#333333;" parent="1" vertex="1">
          <mxGeometry x="920" y="160" width="110" height="110" as="geometry" />
        </mxCell>
        <mxCell id="PAcAt_rOkVFhLOpjQl2_-10" style="edgeStyle=orthogonalEdgeStyle;rounded=0;orthogonalLoop=1;jettySize=auto;html=1;entryX=0;entryY=0.5;entryDx=0;entryDy=0;" parent="1" source="SHSCwAb2SmVs6MCCzv4--10" target="unKVaYUTBxjGMsJQrtcV-6" edge="1">
          <mxGeometry relative="1" as="geometry" />
        </mxCell>
        <mxCell id="SHSCwAb2SmVs6MCCzv4--10" value="Understand &lt;br/&gt;Machine &lt;br/&gt;capabilties and &lt;br/&gt;availabilty and &lt;br/&gt;cost&amp;nbsp;" style="whiteSpace=wrap;html=1;aspect=fixed;fillColor=#f5f5f5;strokeColor=#666666;fontColor=#333333;" parent="1" vertex="1">
          <mxGeometry x="1159.38" y="160" width="110" height="110" as="geometry" />
        </mxCell>
        <mxCell id="PAcAt_rOkVFhLOpjQl2_-5" value="" style="edgeStyle=orthogonalEdgeStyle;rounded=0;orthogonalLoop=1;jettySize=auto;html=1;" parent="1" source="unKVaYUTBxjGMsJQrtcV-6" target="PAcAt_rOkVFhLOpjQl2_-4" edge="1">
          <mxGeometry relative="1" as="geometry" />
        </mxCell>
        <mxCell id="PAcAt_rOkVFhLOpjQl2_-6" value="No" style="edgeLabel;html=1;align=center;verticalAlign=middle;resizable=0;points=[];" parent="PAcAt_rOkVFhLOpjQl2_-5" vertex="1" connectable="0">
          <mxGeometry x="0.0374" y="-1" relative="1" as="geometry">
            <mxPoint x="-1" as="offset" />
          </mxGeometry>
        </mxCell>
        <mxCell id="d30VLbZXiumYJPV09XTk-22" value="" style="edgeStyle=orthogonalEdgeStyle;rounded=0;orthogonalLoop=1;jettySize=auto;html=1;" edge="1" parent="1" source="unKVaYUTBxjGMsJQrtcV-6" target="d30VLbZXiumYJPV09XTk-20">
          <mxGeometry relative="1" as="geometry" />
        </mxCell>
        <mxCell id="d30VLbZXiumYJPV09XTk-25" value="Yes" style="edgeLabel;html=1;align=center;verticalAlign=middle;resizable=0;points=[];" vertex="1" connectable="0" parent="d30VLbZXiumYJPV09XTk-22">
          <mxGeometry x="-0.218" y="-1" relative="1" as="geometry">
            <mxPoint as="offset" />
          </mxGeometry>
        </mxCell>
        <mxCell id="unKVaYUTBxjGMsJQrtcV-6" value="CMM Programming Required?" style="rhombus;whiteSpace=wrap;html=1;fillColor=#dae8fc;strokeColor=#6c8ebf;" parent="1" vertex="1">
          <mxGeometry x="1361.87" y="152.5" width="135" height="125" as="geometry" />
        </mxCell>
        <mxCell id="rqauZLuK4737hjcraJwY-5" value="Offline" style="edgeStyle=orthogonalEdgeStyle;rounded=0;orthogonalLoop=1;jettySize=auto;html=1;" parent="1" source="unKVaYUTBxjGMsJQrtcV-8" target="rqauZLuK4737hjcraJwY-4" edge="1">
          <mxGeometry relative="1" as="geometry" />
        </mxCell>
        <mxCell id="rqauZLuK4737hjcraJwY-8" value="" style="edgeStyle=orthogonalEdgeStyle;rounded=0;orthogonalLoop=1;jettySize=auto;html=1;" parent="1" source="unKVaYUTBxjGMsJQrtcV-8" target="rqauZLuK4737hjcraJwY-7" edge="1">
          <mxGeometry relative="1" as="geometry" />
        </mxCell>
        <mxCell id="rqauZLuK4737hjcraJwY-9" value="Online" style="edgeLabel;html=1;align=center;verticalAlign=middle;resizable=0;points=[];" parent="rqauZLuK4737hjcraJwY-8" vertex="1" connectable="0">
          <mxGeometry x="-0.3375" relative="1" as="geometry">
            <mxPoint as="offset" />
          </mxGeometry>
        </mxCell>
        <mxCell id="unKVaYUTBxjGMsJQrtcV-8" value="Online or Offline Programming" style="rhombus;whiteSpace=wrap;html=1;fillColor=#dae8fc;strokeColor=#6c8ebf;" parent="1" vertex="1">
          <mxGeometry x="1361.87" y="762.2099999999999" width="135" height="125" as="geometry" />
        </mxCell>
        <mxCell id="rqauZLuK4737hjcraJwY-11" value="" style="edgeStyle=orthogonalEdgeStyle;rounded=0;orthogonalLoop=1;jettySize=auto;html=1;" parent="1" source="rqauZLuK4737hjcraJwY-4" target="rqauZLuK4737hjcraJwY-10" edge="1">
          <mxGeometry relative="1" as="geometry" />
        </mxCell>
        <mxCell id="rqauZLuK4737hjcraJwY-13" value="" style="edgeStyle=orthogonalEdgeStyle;rounded=0;orthogonalLoop=1;jettySize=auto;html=1;" parent="1" source="rqauZLuK4737hjcraJwY-4" target="rqauZLuK4737hjcraJwY-12" edge="1">
          <mxGeometry relative="1" as="geometry" />
        </mxCell>
        <mxCell id="d30VLbZXiumYJPV09XTk-16" style="edgeStyle=orthogonalEdgeStyle;rounded=0;orthogonalLoop=1;jettySize=auto;html=1;" edge="1" parent="1" source="rqauZLuK4737hjcraJwY-4" target="rqauZLuK4737hjcraJwY-16">
          <mxGeometry relative="1" as="geometry" />
        </mxCell>
        <mxCell id="rqauZLuK4737hjcraJwY-4" value="CMM Software" style="rhombus;whiteSpace=wrap;html=1;fillColor=#dae8fc;strokeColor=#6c8ebf;" parent="1" vertex="1">
          <mxGeometry x="1161.25" y="762.2099999999999" width="133.75" height="125" as="geometry" />
        </mxCell>
        <mxCell id="rqauZLuK4737hjcraJwY-21" value="" style="edgeStyle=orthogonalEdgeStyle;rounded=0;orthogonalLoop=1;jettySize=auto;html=1;" parent="1" source="rqauZLuK4737hjcraJwY-7" target="rqauZLuK4737hjcraJwY-20" edge="1">
          <mxGeometry relative="1" as="geometry" />
        </mxCell>
        <mxCell id="rqauZLuK4737hjcraJwY-22" value="" style="edgeStyle=orthogonalEdgeStyle;rounded=0;orthogonalLoop=1;jettySize=auto;html=1;" parent="1" source="rqauZLuK4737hjcraJwY-7" target="rqauZLuK4737hjcraJwY-18" edge="1">
          <mxGeometry relative="1" as="geometry" />
        </mxCell>
        <mxCell id="rqauZLuK4737hjcraJwY-23" value="" style="edgeStyle=orthogonalEdgeStyle;rounded=0;orthogonalLoop=1;jettySize=auto;html=1;" parent="1" source="rqauZLuK4737hjcraJwY-7" target="rqauZLuK4737hjcraJwY-19" edge="1">
          <mxGeometry relative="1" as="geometry" />
        </mxCell>
        <mxCell id="rqauZLuK4737hjcraJwY-7" value="CMM Software" style="rhombus;whiteSpace=wrap;html=1;fillColor=#dae8fc;strokeColor=#6c8ebf;" parent="1" vertex="1">
          <mxGeometry x="1361.87" y="1062.21" width="135" height="125" as="geometry" />
        </mxCell>
        <mxCell id="rqauZLuK4737hjcraJwY-32" style="edgeStyle=orthogonalEdgeStyle;rounded=0;orthogonalLoop=1;jettySize=auto;html=1;" parent="1" source="rqauZLuK4737hjcraJwY-10" target="rqauZLuK4737hjcraJwY-25" edge="1">
          <mxGeometry relative="1" as="geometry" />
        </mxCell>
        <mxCell id="rqauZLuK4737hjcraJwY-42" value="Next Process" style="edgeLabel;html=1;align=center;verticalAlign=middle;resizable=0;points=[];" parent="rqauZLuK4737hjcraJwY-32" vertex="1" connectable="0">
          <mxGeometry x="-0.2259" y="1" relative="1" as="geometry">
            <mxPoint as="offset" />
          </mxGeometry>
        </mxCell>
        <mxCell id="rqauZLuK4737hjcraJwY-10" value="Polyworks offline programming" style="whiteSpace=wrap;html=1;fillColor=#e1d5e7;strokeColor=#9673a6;" parent="1" vertex="1">
          <mxGeometry x="1151.26" y="932.2099999999999" width="153.74" height="100" as="geometry" />
        </mxCell>
        <mxCell id="rqauZLuK4737hjcraJwY-26" value="" style="edgeStyle=orthogonalEdgeStyle;rounded=0;orthogonalLoop=1;jettySize=auto;html=1;" parent="1" source="rqauZLuK4737hjcraJwY-12" target="rqauZLuK4737hjcraJwY-25" edge="1">
          <mxGeometry relative="1" as="geometry" />
        </mxCell>
        <mxCell id="rqauZLuK4737hjcraJwY-43" value="Next Process" style="edgeLabel;html=1;align=center;verticalAlign=middle;resizable=0;points=[];" parent="rqauZLuK4737hjcraJwY-26" vertex="1" connectable="0">
          <mxGeometry x="-0.1159" y="-3" relative="1" as="geometry">
            <mxPoint as="offset" />
          </mxGeometry>
        </mxCell>
        <mxCell id="rqauZLuK4737hjcraJwY-12" value="Quindos Offline Programming" style="whiteSpace=wrap;html=1;fillColor=#e1d5e7;strokeColor=#9673a6;" parent="1" vertex="1">
          <mxGeometry x="961.25" y="773.4599999999999" width="120.63" height="102.5" as="geometry" />
        </mxCell>
        <mxCell id="d30VLbZXiumYJPV09XTk-17" style="edgeStyle=orthogonalEdgeStyle;rounded=0;orthogonalLoop=1;jettySize=auto;html=1;" edge="1" parent="1" source="rqauZLuK4737hjcraJwY-16" target="rqauZLuK4737hjcraJwY-25">
          <mxGeometry relative="1" as="geometry" />
        </mxCell>
        <mxCell id="d30VLbZXiumYJPV09XTk-18" value="Next Process" style="edgeLabel;html=1;align=center;verticalAlign=middle;resizable=0;points=[];" vertex="1" connectable="0" parent="d30VLbZXiumYJPV09XTk-17">
          <mxGeometry x="-0.2144" y="2" relative="1" as="geometry">
            <mxPoint as="offset" />
          </mxGeometry>
        </mxCell>
        <mxCell id="rqauZLuK4737hjcraJwY-16" value="Modus Offline Programming" style="whiteSpace=wrap;html=1;fillColor=#e1d5e7;strokeColor=#9673a6;" parent="1" vertex="1">
          <mxGeometry x="1166.2499999999998" y="570" width="123.75" height="100" as="geometry" />
        </mxCell>
        <mxCell id="rqauZLuK4737hjcraJwY-31" style="edgeStyle=orthogonalEdgeStyle;rounded=0;orthogonalLoop=1;jettySize=auto;html=1;entryX=0.5;entryY=1;entryDx=0;entryDy=0;" parent="1" source="rqauZLuK4737hjcraJwY-18" target="rqauZLuK4737hjcraJwY-25" edge="1">
          <mxGeometry relative="1" as="geometry" />
        </mxCell>
        <mxCell id="rqauZLuK4737hjcraJwY-41" value="Next Process" style="edgeLabel;html=1;align=center;verticalAlign=middle;resizable=0;points=[];" parent="rqauZLuK4737hjcraJwY-31" vertex="1" connectable="0">
          <mxGeometry x="-0.429" relative="1" as="geometry">
            <mxPoint as="offset" />
          </mxGeometry>
        </mxCell>
        <mxCell id="rqauZLuK4737hjcraJwY-18" value="Modus Programming" style="whiteSpace=wrap;html=1;fillColor=#f8cecc;strokeColor=#b85450;" parent="1" vertex="1">
          <mxGeometry x="1148.45" y="1075.34" width="146.55" height="98.75" as="geometry" />
        </mxCell>
        <mxCell id="rqauZLuK4737hjcraJwY-33" style="edgeStyle=orthogonalEdgeStyle;rounded=0;orthogonalLoop=1;jettySize=auto;html=1;" parent="1" source="rqauZLuK4737hjcraJwY-19" target="rqauZLuK4737hjcraJwY-25" edge="1">
          <mxGeometry relative="1" as="geometry" />
        </mxCell>
        <mxCell id="rqauZLuK4737hjcraJwY-40" value="Next Process" style="edgeLabel;html=1;align=center;verticalAlign=middle;resizable=0;points=[];" parent="rqauZLuK4737hjcraJwY-33" vertex="1" connectable="0">
          <mxGeometry x="-0.5806" y="1" relative="1" as="geometry">
            <mxPoint as="offset" />
          </mxGeometry>
        </mxCell>
        <mxCell id="rqauZLuK4737hjcraJwY-19" value="Quindos Programming" style="whiteSpace=wrap;html=1;fillColor=#f8cecc;strokeColor=#b85450;" parent="1" vertex="1">
          <mxGeometry x="1361.87" y="1242.21" width="132.5" height="90" as="geometry" />
        </mxCell>
        <mxCell id="rqauZLuK4737hjcraJwY-38" style="edgeStyle=orthogonalEdgeStyle;rounded=0;orthogonalLoop=1;jettySize=auto;html=1;entryX=0.5;entryY=1;entryDx=0;entryDy=0;" parent="1" source="rqauZLuK4737hjcraJwY-20" target="rqauZLuK4737hjcraJwY-25" edge="1">
          <mxGeometry relative="1" as="geometry" />
        </mxCell>
        <mxCell id="rqauZLuK4737hjcraJwY-39" value="Next Process" style="edgeLabel;html=1;align=center;verticalAlign=middle;resizable=0;points=[];" parent="rqauZLuK4737hjcraJwY-38" vertex="1" connectable="0">
          <mxGeometry x="-0.4583" y="2" relative="1" as="geometry">
            <mxPoint as="offset" />
          </mxGeometry>
        </mxCell>
        <mxCell id="rqauZLuK4737hjcraJwY-20" value="Polyworks&amp;nbsp; programming" style="whiteSpace=wrap;html=1;fillColor=#f8cecc;strokeColor=#b85450;" parent="1" vertex="1">
          <mxGeometry x="1541.87" y="1322.21" width="135.99" height="102.5" as="geometry" />
        </mxCell>
        <mxCell id="rqauZLuK4737hjcraJwY-46" value="" style="edgeStyle=orthogonalEdgeStyle;rounded=0;orthogonalLoop=1;jettySize=auto;html=1;" parent="1" source="rqauZLuK4737hjcraJwY-25" target="rqauZLuK4737hjcraJwY-45" edge="1">
          <mxGeometry relative="1" as="geometry" />
        </mxCell>
        <mxCell id="rqauZLuK4737hjcraJwY-25" value="Update ROM/Estimate" style="whiteSpace=wrap;html=1;aspect=fixed;fillColor=#f5f5f5;strokeColor=#666666;fontColor=#333333;" parent="1" vertex="1">
          <mxGeometry x="631.87" y="769.7099999999999" width="110" height="110" as="geometry" />
        </mxCell>
        <mxCell id="rqauZLuK4737hjcraJwY-51" value="" style="edgeStyle=orthogonalEdgeStyle;rounded=0;orthogonalLoop=1;jettySize=auto;html=1;" parent="1" source="rqauZLuK4737hjcraJwY-45" target="rqauZLuK4737hjcraJwY-50" edge="1">
          <mxGeometry relative="1" as="geometry" />
        </mxCell>
        <mxCell id="PAcAt_rOkVFhLOpjQl2_-7" value="Yes" style="edgeLabel;html=1;align=center;verticalAlign=middle;resizable=0;points=[];" parent="rqauZLuK4737hjcraJwY-51" vertex="1" connectable="0">
          <mxGeometry x="-0.1356" y="1" relative="1" as="geometry">
            <mxPoint x="1" as="offset" />
          </mxGeometry>
        </mxCell>
        <mxCell id="PAcAt_rOkVFhLOpjQl2_-15" style="edgeStyle=orthogonalEdgeStyle;rounded=0;orthogonalLoop=1;jettySize=auto;html=1;" parent="1" source="rqauZLuK4737hjcraJwY-45" target="SHSCwAb2SmVs6MCCzv4--2" edge="1">
          <mxGeometry relative="1" as="geometry" />
        </mxCell>
        <mxCell id="PAcAt_rOkVFhLOpjQl2_-16" value="No" style="edgeLabel;html=1;align=center;verticalAlign=middle;resizable=0;points=[];" parent="PAcAt_rOkVFhLOpjQl2_-15" vertex="1" connectable="0">
          <mxGeometry x="0.0932" y="4" relative="1" as="geometry">
            <mxPoint as="offset" />
          </mxGeometry>
        </mxCell>
        <mxCell id="rqauZLuK4737hjcraJwY-45" value="ROM/Estimate&lt;div&gt;Complete?&lt;/div&gt;" style="rhombus;whiteSpace=wrap;html=1;fillColor=#dae8fc;strokeColor=#6c8ebf;" parent="1" vertex="1">
          <mxGeometry x="431.8700000000001" y="762.2099999999999" width="133.75" height="125" as="geometry" />
        </mxCell>
        <mxCell id="rqauZLuK4737hjcraJwY-53" value="" style="edgeStyle=orthogonalEdgeStyle;rounded=0;orthogonalLoop=1;jettySize=auto;html=1;" parent="1" source="rqauZLuK4737hjcraJwY-50" target="rqauZLuK4737hjcraJwY-52" edge="1">
          <mxGeometry relative="1" as="geometry" />
        </mxCell>
        <mxCell id="rqauZLuK4737hjcraJwY-50" value="Send Estimate to Ops Lead for Approval" style="whiteSpace=wrap;html=1;aspect=fixed;fillColor=#f5f5f5;strokeColor=#666666;fontColor=#333333;" parent="1" vertex="1">
          <mxGeometry x="251.87" y="769.7099999999999" width="110" height="110" as="geometry" />
        </mxCell>
        <mxCell id="rqauZLuK4737hjcraJwY-55" value="" style="edgeStyle=orthogonalEdgeStyle;rounded=0;orthogonalLoop=1;jettySize=auto;html=1;" parent="1" source="rqauZLuK4737hjcraJwY-52" target="rqauZLuK4737hjcraJwY-54" edge="1">
          <mxGeometry relative="1" as="geometry" />
        </mxCell>
        <mxCell id="rqauZLuK4737hjcraJwY-52" value="Send Estimate to Customer and Project Manager" style="whiteSpace=wrap;html=1;aspect=fixed;fillColor=#f5f5f5;strokeColor=#666666;fontColor=#333333;" parent="1" vertex="1">
          <mxGeometry x="101.87" y="769.7099999999999" width="110" height="110" as="geometry" />
        </mxCell>
        <mxCell id="rqauZLuK4737hjcraJwY-56" style="edgeStyle=orthogonalEdgeStyle;rounded=0;orthogonalLoop=1;jettySize=auto;html=1;exitX=0;exitY=0.5;exitDx=0;exitDy=0;entryX=0.5;entryY=1;entryDx=0;entryDy=0;" parent="1" source="rqauZLuK4737hjcraJwY-54" target="SHSCwAb2SmVs6MCCzv4--1" edge="1">
          <mxGeometry relative="1" as="geometry" />
        </mxCell>
        <mxCell id="rqauZLuK4737hjcraJwY-57" value="No" style="edgeLabel;html=1;align=center;verticalAlign=middle;resizable=0;points=[];" parent="rqauZLuK4737hjcraJwY-56" vertex="1" connectable="0">
          <mxGeometry x="-0.4085" y="-1" relative="1" as="geometry">
            <mxPoint as="offset" />
          </mxGeometry>
        </mxCell>
        <mxCell id="PAcAt_rOkVFhLOpjQl2_-2" value="" style="edgeStyle=orthogonalEdgeStyle;rounded=0;orthogonalLoop=1;jettySize=auto;html=1;" parent="1" source="rqauZLuK4737hjcraJwY-54" target="PAcAt_rOkVFhLOpjQl2_-1" edge="1">
          <mxGeometry relative="1" as="geometry" />
        </mxCell>
        <mxCell id="PAcAt_rOkVFhLOpjQl2_-3" value="Yes" style="edgeLabel;html=1;align=center;verticalAlign=middle;resizable=0;points=[];" parent="PAcAt_rOkVFhLOpjQl2_-2" vertex="1" connectable="0">
          <mxGeometry x="-0.2634" y="3" relative="1" as="geometry">
            <mxPoint as="offset" />
          </mxGeometry>
        </mxCell>
        <mxCell id="rqauZLuK4737hjcraJwY-54" value="Customer Happy&lt;div&gt;With Estimate?&lt;/div&gt;" style="rhombus;whiteSpace=wrap;html=1;fillColor=#dae8fc;strokeColor=#6c8ebf;" parent="1" vertex="1">
          <mxGeometry x="90.00000000000013" y="962.2099999999999" width="133.75" height="125" as="geometry" />
        </mxCell>
        <mxCell id="PAcAt_rOkVFhLOpjQl2_-1" value="Estimate Accepted" style="whiteSpace=wrap;html=1;aspect=fixed;fillColor=#f5f5f5;strokeColor=#666666;fontColor=#333333;" parent="1" vertex="1">
          <mxGeometry x="101.87" y="1174.09" width="110" height="110" as="geometry" />
        </mxCell>
        <mxCell id="PAcAt_rOkVFhLOpjQl2_-9" value="" style="edgeStyle=orthogonalEdgeStyle;rounded=0;orthogonalLoop=1;jettySize=auto;html=1;" parent="1" source="PAcAt_rOkVFhLOpjQl2_-4" target="PAcAt_rOkVFhLOpjQl2_-8" edge="1">
          <mxGeometry relative="1" as="geometry" />
        </mxCell>
        <mxCell id="PAcAt_rOkVFhLOpjQl2_-42" value="Yes" style="edgeLabel;html=1;align=center;verticalAlign=middle;resizable=0;points=[];" parent="PAcAt_rOkVFhLOpjQl2_-9" vertex="1" connectable="0">
          <mxGeometry x="-0.3305" y="1" relative="1" as="geometry">
            <mxPoint as="offset" />
          </mxGeometry>
        </mxCell>
        <mxCell id="PAcAt_rOkVFhLOpjQl2_-32" style="edgeStyle=orthogonalEdgeStyle;rounded=0;orthogonalLoop=1;jettySize=auto;html=1;" parent="1" source="PAcAt_rOkVFhLOpjQl2_-4" target="PAcAt_rOkVFhLOpjQl2_-31" edge="1">
          <mxGeometry relative="1" as="geometry" />
        </mxCell>
        <mxCell id="PAcAt_rOkVFhLOpjQl2_-43" value="No" style="edgeLabel;html=1;align=center;verticalAlign=middle;resizable=0;points=[];" parent="PAcAt_rOkVFhLOpjQl2_-32" vertex="1" connectable="0">
          <mxGeometry x="-0.0169" y="3" relative="1" as="geometry">
            <mxPoint x="-1" as="offset" />
          </mxGeometry>
        </mxCell>
        <mxCell id="PAcAt_rOkVFhLOpjQl2_-4" value="GOM Scanning&lt;div&gt;Required&lt;/div&gt;" style="rhombus;whiteSpace=wrap;html=1;fillColor=#dae8fc;strokeColor=#6c8ebf;" parent="1" vertex="1">
          <mxGeometry x="1702.86" y="152.5" width="135" height="125" as="geometry" />
        </mxCell>
        <mxCell id="PAcAt_rOkVFhLOpjQl2_-12" value="" style="edgeStyle=orthogonalEdgeStyle;rounded=0;orthogonalLoop=1;jettySize=auto;html=1;" parent="1" source="PAcAt_rOkVFhLOpjQl2_-8" target="PAcAt_rOkVFhLOpjQl2_-11" edge="1">
          <mxGeometry relative="1" as="geometry" />
        </mxCell>
        <mxCell id="PAcAt_rOkVFhLOpjQl2_-8" value="Understand Set &lt;br/&gt;up time&amp;nbsp;" style="whiteSpace=wrap;html=1;aspect=fixed;fillColor=#f5f5f5;strokeColor=#666666;fontColor=#333333;" parent="1" vertex="1">
          <mxGeometry x="1714.37" y="712.2099999999999" width="110" height="110" as="geometry" />
        </mxCell>
        <mxCell id="PAcAt_rOkVFhLOpjQl2_-21" style="edgeStyle=orthogonalEdgeStyle;rounded=0;orthogonalLoop=1;jettySize=auto;html=1;" parent="1" source="PAcAt_rOkVFhLOpjQl2_-11" target="PAcAt_rOkVFhLOpjQl2_-20" edge="1">
          <mxGeometry relative="1" as="geometry" />
        </mxCell>
        <mxCell id="PAcAt_rOkVFhLOpjQl2_-11" value="Understand Scanning time due to size/material" style="whiteSpace=wrap;html=1;aspect=fixed;fillColor=#f5f5f5;strokeColor=#666666;fontColor=#333333;" parent="1" vertex="1">
          <mxGeometry x="1714.37" y="1062.21" width="110" height="110" as="geometry" />
        </mxCell>
        <mxCell id="PAcAt_rOkVFhLOpjQl2_-23" value="" style="edgeStyle=orthogonalEdgeStyle;rounded=0;orthogonalLoop=1;jettySize=auto;html=1;" parent="1" source="PAcAt_rOkVFhLOpjQl2_-20" target="PAcAt_rOkVFhLOpjQl2_-22" edge="1">
          <mxGeometry relative="1" as="geometry" />
        </mxCell>
        <mxCell id="PAcAt_rOkVFhLOpjQl2_-39" value="No" style="edgeLabel;html=1;align=center;verticalAlign=middle;resizable=0;points=[];" parent="PAcAt_rOkVFhLOpjQl2_-23" vertex="1" connectable="0">
          <mxGeometry x="-0.2536" y="5" relative="1" as="geometry">
            <mxPoint as="offset" />
          </mxGeometry>
        </mxCell>
        <mxCell id="PAcAt_rOkVFhLOpjQl2_-25" value="" style="edgeStyle=orthogonalEdgeStyle;rounded=0;orthogonalLoop=1;jettySize=auto;html=1;" parent="1" source="PAcAt_rOkVFhLOpjQl2_-20" target="PAcAt_rOkVFhLOpjQl2_-24" edge="1">
          <mxGeometry relative="1" as="geometry" />
        </mxCell>
        <mxCell id="PAcAt_rOkVFhLOpjQl2_-40" value="Polyworks" style="edgeLabel;html=1;align=center;verticalAlign=middle;resizable=0;points=[];" parent="PAcAt_rOkVFhLOpjQl2_-25" vertex="1" connectable="0">
          <mxGeometry x="-0.1796" y="4" relative="1" as="geometry">
            <mxPoint as="offset" />
          </mxGeometry>
        </mxCell>
        <mxCell id="PAcAt_rOkVFhLOpjQl2_-27" value="" style="edgeStyle=orthogonalEdgeStyle;rounded=0;orthogonalLoop=1;jettySize=auto;html=1;" parent="1" source="PAcAt_rOkVFhLOpjQl2_-20" target="PAcAt_rOkVFhLOpjQl2_-26" edge="1">
          <mxGeometry relative="1" as="geometry" />
        </mxCell>
        <mxCell id="PAcAt_rOkVFhLOpjQl2_-41" value="Zeiss" style="edgeLabel;html=1;align=center;verticalAlign=middle;resizable=0;points=[];" parent="PAcAt_rOkVFhLOpjQl2_-27" vertex="1" connectable="0">
          <mxGeometry x="-0.5746" y="-2" relative="1" as="geometry">
            <mxPoint as="offset" />
          </mxGeometry>
        </mxCell>
        <mxCell id="PAcAt_rOkVFhLOpjQl2_-20" value="Analysis Required?" style="rhombus;whiteSpace=wrap;html=1;fillColor=#dae8fc;strokeColor=#6c8ebf;" parent="1" vertex="1">
          <mxGeometry x="1701.87" y="1482.21" width="135" height="125" as="geometry" />
        </mxCell>
        <mxCell id="PAcAt_rOkVFhLOpjQl2_-28" style="edgeStyle=orthogonalEdgeStyle;rounded=0;orthogonalLoop=1;jettySize=auto;html=1;" parent="1" source="PAcAt_rOkVFhLOpjQl2_-22" target="rqauZLuK4737hjcraJwY-25" edge="1">
          <mxGeometry relative="1" as="geometry" />
        </mxCell>
        <mxCell id="PAcAt_rOkVFhLOpjQl2_-22" value="No Analysis&lt;div&gt;Export Data&lt;/div&gt;" style="whiteSpace=wrap;html=1;aspect=fixed;fillColor=#f5f5f5;strokeColor=#666666;fontColor=#333333;" parent="1" vertex="1">
          <mxGeometry x="1511.87" y="1489.71" width="110" height="110" as="geometry" />
        </mxCell>
        <mxCell id="PAcAt_rOkVFhLOpjQl2_-29" style="edgeStyle=orthogonalEdgeStyle;rounded=0;orthogonalLoop=1;jettySize=auto;html=1;" parent="1" source="PAcAt_rOkVFhLOpjQl2_-24" target="rqauZLuK4737hjcraJwY-25" edge="1">
          <mxGeometry relative="1" as="geometry" />
        </mxCell>
        <mxCell id="PAcAt_rOkVFhLOpjQl2_-24" value="Polyworks&amp;nbsp; Analysis" style="whiteSpace=wrap;html=1;fillColor=#f8cecc;strokeColor=#b85450;" parent="1" vertex="1">
          <mxGeometry x="1701.87" y="1672.21" width="135.99" height="102.5" as="geometry" />
        </mxCell>
        <mxCell id="PAcAt_rOkVFhLOpjQl2_-30" style="edgeStyle=orthogonalEdgeStyle;rounded=0;orthogonalLoop=1;jettySize=auto;html=1;" parent="1" source="PAcAt_rOkVFhLOpjQl2_-26" target="rqauZLuK4737hjcraJwY-25" edge="1">
          <mxGeometry relative="1" as="geometry" />
        </mxCell>
        <mxCell id="PAcAt_rOkVFhLOpjQl2_-26" value="Zeiss Inspect&amp;nbsp; Analysis" style="whiteSpace=wrap;html=1;fillColor=#f8cecc;strokeColor=#b85450;" parent="1" vertex="1">
          <mxGeometry x="1911.87" y="1782.21" width="135.99" height="102.5" as="geometry" />
        </mxCell>
        <mxCell id="PAcAt_rOkVFhLOpjQl2_-34" style="edgeStyle=orthogonalEdgeStyle;rounded=0;orthogonalLoop=1;jettySize=auto;html=1;" parent="1" source="PAcAt_rOkVFhLOpjQl2_-31" target="PAcAt_rOkVFhLOpjQl2_-33" edge="1">
          <mxGeometry relative="1" as="geometry" />
        </mxCell>
        <mxCell id="d30VLbZXiumYJPV09XTk-19" value="Yes" style="edgeLabel;html=1;align=center;verticalAlign=middle;resizable=0;points=[];" vertex="1" connectable="0" parent="PAcAt_rOkVFhLOpjQl2_-34">
          <mxGeometry x="-0.7347" y="-1" relative="1" as="geometry">
            <mxPoint as="offset" />
          </mxGeometry>
        </mxCell>
        <mxCell id="PAcAt_rOkVFhLOpjQl2_-65" style="edgeStyle=orthogonalEdgeStyle;rounded=0;orthogonalLoop=1;jettySize=auto;html=1;" parent="1" source="PAcAt_rOkVFhLOpjQl2_-31" target="PAcAt_rOkVFhLOpjQl2_-64" edge="1">
          <mxGeometry relative="1" as="geometry" />
        </mxCell>
        <mxCell id="d30VLbZXiumYJPV09XTk-15" value="No" style="edgeLabel;html=1;align=center;verticalAlign=middle;resizable=0;points=[];" vertex="1" connectable="0" parent="PAcAt_rOkVFhLOpjQl2_-65">
          <mxGeometry x="-0.7358" relative="1" as="geometry">
            <mxPoint as="offset" />
          </mxGeometry>
        </mxCell>
        <mxCell id="PAcAt_rOkVFhLOpjQl2_-31" value="Surface Inspection&lt;div&gt;Required&lt;/div&gt;" style="rhombus;whiteSpace=wrap;html=1;fillColor=#dae8fc;strokeColor=#6c8ebf;" parent="1" vertex="1">
          <mxGeometry x="2251.87" y="152.5" width="135" height="125" as="geometry" />
        </mxCell>
        <mxCell id="PAcAt_rOkVFhLOpjQl2_-36" style="edgeStyle=orthogonalEdgeStyle;rounded=0;orthogonalLoop=1;jettySize=auto;html=1;" parent="1" source="PAcAt_rOkVFhLOpjQl2_-33" target="PAcAt_rOkVFhLOpjQl2_-35" edge="1">
          <mxGeometry relative="1" as="geometry" />
        </mxCell>
        <mxCell id="PAcAt_rOkVFhLOpjQl2_-33" value="Understand Set &lt;br/&gt;up time&amp;nbsp;" style="whiteSpace=wrap;html=1;aspect=fixed;fillColor=#f5f5f5;strokeColor=#666666;fontColor=#333333;" parent="1" vertex="1">
          <mxGeometry x="2264.37" y="977.2099999999999" width="110" height="110" as="geometry" />
        </mxCell>
        <mxCell id="PAcAt_rOkVFhLOpjQl2_-38" value="" style="edgeStyle=orthogonalEdgeStyle;rounded=0;orthogonalLoop=1;jettySize=auto;html=1;" parent="1" source="PAcAt_rOkVFhLOpjQl2_-35" target="PAcAt_rOkVFhLOpjQl2_-37" edge="1">
          <mxGeometry relative="1" as="geometry" />
        </mxCell>
        <mxCell id="PAcAt_rOkVFhLOpjQl2_-35" value="Understand Scanning time due to size/material/ optical technology" style="whiteSpace=wrap;html=1;aspect=fixed;fillColor=#f5f5f5;strokeColor=#666666;fontColor=#333333;" parent="1" vertex="1">
          <mxGeometry x="2264.37" y="1442.21" width="110" height="110" as="geometry" />
        </mxCell>
        <mxCell id="PAcAt_rOkVFhLOpjQl2_-49" style="edgeStyle=orthogonalEdgeStyle;rounded=0;orthogonalLoop=1;jettySize=auto;html=1;" parent="1" source="PAcAt_rOkVFhLOpjQl2_-37" target="PAcAt_rOkVFhLOpjQl2_-48" edge="1">
          <mxGeometry relative="1" as="geometry" />
        </mxCell>
        <mxCell id="PAcAt_rOkVFhLOpjQl2_-50" value="No" style="edgeLabel;html=1;align=center;verticalAlign=middle;resizable=0;points=[];" parent="PAcAt_rOkVFhLOpjQl2_-49" vertex="1" connectable="0">
          <mxGeometry x="-0.3143" y="4" relative="1" as="geometry">
            <mxPoint as="offset" />
          </mxGeometry>
        </mxCell>
        <mxCell id="PAcAt_rOkVFhLOpjQl2_-54" style="edgeStyle=orthogonalEdgeStyle;rounded=0;orthogonalLoop=1;jettySize=auto;html=1;" parent="1" source="PAcAt_rOkVFhLOpjQl2_-37" target="PAcAt_rOkVFhLOpjQl2_-51" edge="1">
          <mxGeometry relative="1" as="geometry" />
        </mxCell>
        <mxCell id="PAcAt_rOkVFhLOpjQl2_-55" value="Yes" style="edgeLabel;html=1;align=center;verticalAlign=middle;resizable=0;points=[];" parent="PAcAt_rOkVFhLOpjQl2_-54" vertex="1" connectable="0">
          <mxGeometry x="-0.0753" y="-2" relative="1" as="geometry">
            <mxPoint x="1" as="offset" />
          </mxGeometry>
        </mxCell>
        <mxCell id="PAcAt_rOkVFhLOpjQl2_-37" value="Analysis Required?" style="rhombus;whiteSpace=wrap;html=1;fillColor=#dae8fc;strokeColor=#6c8ebf;" parent="1" vertex="1">
          <mxGeometry x="2251.87" y="1652.21" width="135" height="125" as="geometry" />
        </mxCell>
        <mxCell id="PAcAt_rOkVFhLOpjQl2_-47" value="No Analysis&lt;div&gt;Export Data&lt;/div&gt;" style="whiteSpace=wrap;html=1;aspect=fixed;fillColor=#f5f5f5;strokeColor=#666666;fontColor=#333333;" parent="1" vertex="1">
          <mxGeometry x="1511.87" y="1489.71" width="110" height="110" as="geometry" />
        </mxCell>
        <mxCell id="PAcAt_rOkVFhLOpjQl2_-61" style="edgeStyle=orthogonalEdgeStyle;rounded=0;orthogonalLoop=1;jettySize=auto;html=1;" parent="1" source="PAcAt_rOkVFhLOpjQl2_-48" target="rqauZLuK4737hjcraJwY-25" edge="1">
          <mxGeometry relative="1" as="geometry" />
        </mxCell>
        <mxCell id="PAcAt_rOkVFhLOpjQl2_-48" value="No Analysis&lt;div&gt;Export Data&lt;/div&gt;" style="whiteSpace=wrap;html=1;aspect=fixed;fillColor=#f5f5f5;strokeColor=#666666;fontColor=#333333;" parent="1" vertex="1">
          <mxGeometry x="2264.37" y="1872.21" width="110" height="110" as="geometry" />
        </mxCell>
        <mxCell id="PAcAt_rOkVFhLOpjQl2_-56" style="edgeStyle=orthogonalEdgeStyle;rounded=0;orthogonalLoop=1;jettySize=auto;html=1;" parent="1" source="PAcAt_rOkVFhLOpjQl2_-51" target="PAcAt_rOkVFhLOpjQl2_-52" edge="1">
          <mxGeometry relative="1" as="geometry" />
        </mxCell>
        <mxCell id="PAcAt_rOkVFhLOpjQl2_-57" value="Mountains" style="edgeLabel;html=1;align=center;verticalAlign=middle;resizable=0;points=[];" parent="PAcAt_rOkVFhLOpjQl2_-56" vertex="1" connectable="0">
          <mxGeometry x="-0.1503" y="-1" relative="1" as="geometry">
            <mxPoint x="1" y="123" as="offset" />
          </mxGeometry>
        </mxCell>
        <mxCell id="PAcAt_rOkVFhLOpjQl2_-59" style="edgeStyle=orthogonalEdgeStyle;rounded=0;orthogonalLoop=1;jettySize=auto;html=1;" parent="1" source="PAcAt_rOkVFhLOpjQl2_-51" target="PAcAt_rOkVFhLOpjQl2_-58" edge="1">
          <mxGeometry relative="1" as="geometry" />
        </mxCell>
        <mxCell id="PAcAt_rOkVFhLOpjQl2_-60" value="Polyworks" style="edgeLabel;html=1;align=center;verticalAlign=middle;resizable=0;points=[];" parent="PAcAt_rOkVFhLOpjQl2_-59" vertex="1" connectable="0">
          <mxGeometry x="-0.0597" y="-1" relative="1" as="geometry">
            <mxPoint as="offset" />
          </mxGeometry>
        </mxCell>
        <mxCell id="PAcAt_rOkVFhLOpjQl2_-51" value="Analysis Software" style="rhombus;whiteSpace=wrap;html=1;fillColor=#dae8fc;strokeColor=#6c8ebf;" parent="1" vertex="1">
          <mxGeometry x="2551.88" y="1652.21" width="135" height="125" as="geometry" />
        </mxCell>
        <mxCell id="PAcAt_rOkVFhLOpjQl2_-63" style="edgeStyle=orthogonalEdgeStyle;rounded=0;orthogonalLoop=1;jettySize=auto;html=1;" parent="1" source="PAcAt_rOkVFhLOpjQl2_-52" target="rqauZLuK4737hjcraJwY-25" edge="1">
          <mxGeometry relative="1" as="geometry" />
        </mxCell>
        <mxCell id="PAcAt_rOkVFhLOpjQl2_-52" value="Mountains Map&amp;nbsp; Analysis" style="whiteSpace=wrap;html=1;fillColor=#f8cecc;strokeColor=#b85450;" parent="1" vertex="1">
          <mxGeometry x="2805.88" y="2052.21" width="135.99" height="102.5" as="geometry" />
        </mxCell>
        <mxCell id="PAcAt_rOkVFhLOpjQl2_-62" style="edgeStyle=orthogonalEdgeStyle;rounded=0;orthogonalLoop=1;jettySize=auto;html=1;" parent="1" source="PAcAt_rOkVFhLOpjQl2_-58" target="rqauZLuK4737hjcraJwY-25" edge="1">
          <mxGeometry relative="1" as="geometry" />
        </mxCell>
        <mxCell id="PAcAt_rOkVFhLOpjQl2_-58" value="Polyworks&amp;nbsp; Analysis" style="whiteSpace=wrap;html=1;fillColor=#f8cecc;strokeColor=#b85450;" parent="1" vertex="1">
          <mxGeometry x="2551.88" y="1972.21" width="135.99" height="102.5" as="geometry" />
        </mxCell>
        <mxCell id="PAcAt_rOkVFhLOpjQl2_-68" value="" style="edgeStyle=orthogonalEdgeStyle;rounded=0;orthogonalLoop=1;jettySize=auto;html=1;" parent="1" source="PAcAt_rOkVFhLOpjQl2_-64" target="PAcAt_rOkVFhLOpjQl2_-67" edge="1">
          <mxGeometry relative="1" as="geometry" />
        </mxCell>
        <mxCell id="d30VLbZXiumYJPV09XTk-14" value="Yes" style="edgeLabel;html=1;align=center;verticalAlign=middle;resizable=0;points=[];" vertex="1" connectable="0" parent="PAcAt_rOkVFhLOpjQl2_-68">
          <mxGeometry x="-0.8347" y="1" relative="1" as="geometry">
            <mxPoint as="offset" />
          </mxGeometry>
        </mxCell>
        <mxCell id="PAcAt_rOkVFhLOpjQl2_-64" value="XCT&lt;div&gt;Required&lt;/div&gt;" style="rhombus;whiteSpace=wrap;html=1;fillColor=#dae8fc;strokeColor=#6c8ebf;" parent="1" vertex="1">
          <mxGeometry x="3191.87" y="152.5" width="135" height="125" as="geometry" />
        </mxCell>
        <mxCell id="PAcAt_rOkVFhLOpjQl2_-71" style="edgeStyle=orthogonalEdgeStyle;rounded=0;orthogonalLoop=1;jettySize=auto;html=1;" parent="1" source="PAcAt_rOkVFhLOpjQl2_-67" target="PAcAt_rOkVFhLOpjQl2_-70" edge="1">
          <mxGeometry relative="1" as="geometry" />
        </mxCell>
        <mxCell id="PAcAt_rOkVFhLOpjQl2_-67" value="Understand Set &lt;br/&gt;up time&amp;nbsp;" style="whiteSpace=wrap;html=1;aspect=fixed;fillColor=#f5f5f5;strokeColor=#666666;fontColor=#333333;" parent="1" vertex="1">
          <mxGeometry x="3204.37" y="1622.21" width="110" height="110" as="geometry" />
        </mxCell>
        <mxCell id="PAcAt_rOkVFhLOpjQl2_-75" value="" style="edgeStyle=orthogonalEdgeStyle;rounded=0;orthogonalLoop=1;jettySize=auto;html=1;" parent="1" source="PAcAt_rOkVFhLOpjQl2_-70" target="PAcAt_rOkVFhLOpjQl2_-74" edge="1">
          <mxGeometry relative="1" as="geometry" />
        </mxCell>
        <mxCell id="PAcAt_rOkVFhLOpjQl2_-70" value="Understand Scanning time due to size/material/ resolution" style="whiteSpace=wrap;html=1;aspect=fixed;fillColor=#f5f5f5;strokeColor=#666666;fontColor=#333333;" parent="1" vertex="1">
          <mxGeometry x="3204.37" y="1862.21" width="110" height="110" as="geometry" />
        </mxCell>
        <mxCell id="d30VLbZXiumYJPV09XTk-2" value="" style="edgeStyle=orthogonalEdgeStyle;rounded=0;orthogonalLoop=1;jettySize=auto;html=1;" edge="1" parent="1" source="PAcAt_rOkVFhLOpjQl2_-74" target="d30VLbZXiumYJPV09XTk-1">
          <mxGeometry relative="1" as="geometry" />
        </mxCell>
        <mxCell id="d30VLbZXiumYJPV09XTk-7" value="Yes" style="edgeLabel;html=1;align=center;verticalAlign=middle;resizable=0;points=[];" vertex="1" connectable="0" parent="d30VLbZXiumYJPV09XTk-2">
          <mxGeometry x="0.075" relative="1" as="geometry">
            <mxPoint as="offset" />
          </mxGeometry>
        </mxCell>
        <mxCell id="d30VLbZXiumYJPV09XTk-9" value="" style="edgeStyle=orthogonalEdgeStyle;rounded=0;orthogonalLoop=1;jettySize=auto;html=1;" edge="1" parent="1" source="PAcAt_rOkVFhLOpjQl2_-74" target="d30VLbZXiumYJPV09XTk-8">
          <mxGeometry relative="1" as="geometry" />
        </mxCell>
        <mxCell id="d30VLbZXiumYJPV09XTk-10" value="No" style="edgeLabel;html=1;align=center;verticalAlign=middle;resizable=0;points=[];" vertex="1" connectable="0" parent="d30VLbZXiumYJPV09XTk-9">
          <mxGeometry x="-0.1401" y="-1" relative="1" as="geometry">
            <mxPoint x="-1" as="offset" />
          </mxGeometry>
        </mxCell>
        <mxCell id="PAcAt_rOkVFhLOpjQl2_-74" value="Analysis Required?" style="rhombus;whiteSpace=wrap;html=1;fillColor=#dae8fc;strokeColor=#6c8ebf;" parent="1" vertex="1">
          <mxGeometry x="3191.87" y="2062.21" width="135" height="125" as="geometry" />
        </mxCell>
        <mxCell id="d30VLbZXiumYJPV09XTk-4" value="" style="edgeStyle=orthogonalEdgeStyle;rounded=0;orthogonalLoop=1;jettySize=auto;html=1;" edge="1" parent="1" source="d30VLbZXiumYJPV09XTk-1" target="d30VLbZXiumYJPV09XTk-3">
          <mxGeometry relative="1" as="geometry" />
        </mxCell>
        <mxCell id="d30VLbZXiumYJPV09XTk-6" value="" style="edgeStyle=orthogonalEdgeStyle;rounded=0;orthogonalLoop=1;jettySize=auto;html=1;" edge="1" parent="1" source="d30VLbZXiumYJPV09XTk-1" target="d30VLbZXiumYJPV09XTk-5">
          <mxGeometry relative="1" as="geometry" />
        </mxCell>
        <mxCell id="d30VLbZXiumYJPV09XTk-1" value="Analysis Software" style="rhombus;whiteSpace=wrap;html=1;fillColor=#dae8fc;strokeColor=#6c8ebf;" vertex="1" parent="1">
          <mxGeometry x="3191.87" y="2267.21" width="135" height="125" as="geometry" />
        </mxCell>
        <mxCell id="d30VLbZXiumYJPV09XTk-12" style="edgeStyle=orthogonalEdgeStyle;rounded=0;orthogonalLoop=1;jettySize=auto;html=1;" edge="1" parent="1" source="d30VLbZXiumYJPV09XTk-3" target="rqauZLuK4737hjcraJwY-25">
          <mxGeometry relative="1" as="geometry" />
        </mxCell>
        <mxCell id="d30VLbZXiumYJPV09XTk-3" value="Polyworks&amp;nbsp; Analysis" style="whiteSpace=wrap;html=1;fillColor=#f8cecc;strokeColor=#b85450;" vertex="1" parent="1">
          <mxGeometry x="3190.88" y="2454.71" width="135.99" height="102.5" as="geometry" />
        </mxCell>
        <mxCell id="d30VLbZXiumYJPV09XTk-11" style="edgeStyle=orthogonalEdgeStyle;rounded=0;orthogonalLoop=1;jettySize=auto;html=1;" edge="1" parent="1" source="d30VLbZXiumYJPV09XTk-5" target="rqauZLuK4737hjcraJwY-25">
          <mxGeometry relative="1" as="geometry" />
        </mxCell>
        <mxCell id="d30VLbZXiumYJPV09XTk-5" value="VG" style="whiteSpace=wrap;html=1;fillColor=#f8cecc;strokeColor=#b85450;" vertex="1" parent="1">
          <mxGeometry x="3001.87" y="2278.46" width="135.99" height="102.5" as="geometry" />
        </mxCell>
        <mxCell id="d30VLbZXiumYJPV09XTk-13" style="edgeStyle=orthogonalEdgeStyle;rounded=0;orthogonalLoop=1;jettySize=auto;html=1;" edge="1" parent="1" source="d30VLbZXiumYJPV09XTk-8" target="rqauZLuK4737hjcraJwY-25">
          <mxGeometry relative="1" as="geometry" />
        </mxCell>
        <mxCell id="d30VLbZXiumYJPV09XTk-8" value="Save data to customer requirement" style="whiteSpace=wrap;html=1;aspect=fixed;fillColor=#f5f5f5;strokeColor=#666666;fontColor=#333333;" vertex="1" parent="1">
          <mxGeometry x="3471.87" y="2542.21" width="110" height="110" as="geometry" />
        </mxCell>
        <mxCell id="d30VLbZXiumYJPV09XTk-23" value="" style="edgeStyle=orthogonalEdgeStyle;rounded=0;orthogonalLoop=1;jettySize=auto;html=1;" edge="1" parent="1" source="d30VLbZXiumYJPV09XTk-20" target="d30VLbZXiumYJPV09XTk-21">
          <mxGeometry relative="1" as="geometry" />
        </mxCell>
        <mxCell id="d30VLbZXiumYJPV09XTk-20" value="Understand fixturing &amp;amp; probe selection" style="whiteSpace=wrap;html=1;aspect=fixed;fillColor=#f5f5f5;strokeColor=#666666;fontColor=#333333;" vertex="1" parent="1">
          <mxGeometry x="1374.37" y="369.99999999999994" width="110" height="110" as="geometry" />
        </mxCell>
        <mxCell id="d30VLbZXiumYJPV09XTk-24" value="" style="edgeStyle=orthogonalEdgeStyle;rounded=0;orthogonalLoop=1;jettySize=auto;html=1;" edge="1" parent="1" source="d30VLbZXiumYJPV09XTk-21" target="unKVaYUTBxjGMsJQrtcV-8">
          <mxGeometry relative="1" as="geometry" />
        </mxCell>
        <mxCell id="d30VLbZXiumYJPV09XTk-21" value="Understand program time &amp;amp; run time" style="whiteSpace=wrap;html=1;aspect=fixed;fillColor=#f5f5f5;strokeColor=#666666;fontColor=#333333;" vertex="1" parent="1">
          <mxGeometry x="1374.37" y="570" width="110" height="110" as="geometry" />
        </mxCell>
      </root>
    </mxGraphModel>
  </diagram>
</mxfile>
